<svg width="98" height="243" viewBox="0 0 98 243" fill="none" xmlns="http://www.w3.org/2000/svg">
<path d="M37.5352 210.367H31.0078V216.016H32.332C32.5664 216.016 32.7344 216.062 32.8359 216.156C32.9375 216.242 32.9883 216.359 32.9883 216.508C32.9883 216.648 32.9375 216.766 32.8359 216.859C32.7344 216.953 32.5664 217 32.332 217H28.9102C28.6758 217 28.5078 216.953 28.4062 216.859C28.3047 216.766 28.2539 216.648 28.2539 216.508C28.2539 216.359 28.3047 216.242 28.4062 216.156C28.5078 216.062 28.6758 216.016 28.9102 216.016H30.0234V204.273H29.4141C29.1719 204.273 29 204.23 28.8984 204.145C28.7969 204.051 28.7461 203.93 28.7461 203.781C28.7461 203.633 28.7969 203.516 28.8984 203.43C29 203.336 29.1719 203.289 29.4141 203.289H32.332C32.5664 203.289 32.7344 203.336 32.8359 203.43C32.9375 203.516 32.9883 203.633 32.9883 203.781C32.9883 203.93 32.9375 204.051 32.8359 204.145C32.7344 204.23 32.5664 204.273 32.332 204.273H31.0078V209.383H37.5352V204.273H36.2227C35.9883 204.273 35.8203 204.23 35.7188 204.145C35.6172 204.051 35.5664 203.93 35.5664 203.781C35.5664 203.633 35.6133 203.516 35.707 203.43C35.8086 203.336 35.9805 203.289 36.2227 203.289H39.1406C39.3828 203.289 39.5547 203.336 39.6562 203.43C39.7578 203.516 39.8086 203.633 39.8086 203.781C39.8086 203.93 39.7578 204.051 39.6562 204.145C39.5547 204.23 39.3828 204.273 39.1406 204.273H38.5312V216.016H39.6445C39.8789 216.016 40.0469 216.062 40.1484 216.156C40.25 216.242 40.3008 216.359 40.3008 216.508C40.3008 216.648 40.25 216.766 40.1484 216.859C40.0469 216.953 39.8789 217 39.6445 217H36.2227C35.9883 217 35.8203 216.953 35.7188 216.859C35.6172 216.766 35.5664 216.648 35.5664 216.508C35.5664 216.359 35.6133 216.242 35.707 216.156C35.8086 216.062 35.9805 216.016 36.2227 216.016H37.5352V210.367ZM52.1367 204.273V203.945C52.1367 203.711 52.1797 203.543 52.2656 203.441C52.3594 203.34 52.4805 203.289 52.6289 203.289C52.7773 203.289 52.8945 203.34 52.9805 203.441C53.0742 203.543 53.1211 203.711 53.1211 203.945V206.453C53.1211 206.688 53.0742 206.855 52.9805 206.957C52.8945 207.059 52.7773 207.109 52.6289 207.109C52.4883 207.109 52.3711 207.062 52.2773 206.969C52.1914 206.875 52.1445 206.723 52.1367 206.512C52.0977 205.855 51.7578 205.266 51.1172 204.742C50.4844 204.219 49.6523 203.957 48.6211 203.957C47.5352 203.957 46.6719 204.238 46.0312 204.801C45.3906 205.355 45.0703 206.012 45.0703 206.77C45.0703 207.16 45.1602 207.516 45.3398 207.836C45.5195 208.156 45.7578 208.418 46.0547 208.621C46.3516 208.816 46.6875 208.977 47.0625 209.102C47.4375 209.219 48.0234 209.344 48.8203 209.477C50.1562 209.695 51.0781 209.918 51.5859 210.145C52.2656 210.449 52.7773 210.871 53.1211 211.41C53.4727 211.949 53.6484 212.586 53.6484 213.32C53.6484 214.445 53.1992 215.406 52.3008 216.203C51.4023 216.992 50.1914 217.387 48.668 217.387C46.957 217.387 45.5898 216.852 44.5664 215.781V216.344C44.5664 216.578 44.5195 216.746 44.4258 216.848C44.3398 216.949 44.2227 217 44.0742 217C43.9336 217 43.8164 216.949 43.7227 216.848C43.6289 216.746 43.582 216.578 43.582 216.344V213.625C43.582 213.383 43.625 213.211 43.7109 213.109C43.8047 213.008 43.9258 212.957 44.0742 212.957C44.2148 212.957 44.3281 213.004 44.4141 213.098C44.5078 213.191 44.5586 213.344 44.5664 213.555C44.6055 214.273 44.9883 214.93 45.7148 215.523C46.4492 216.109 47.4336 216.402 48.668 216.402C49.9023 216.402 50.875 216.094 51.5859 215.477C52.3047 214.859 52.6641 214.129 52.6641 213.285C52.6641 212.77 52.5273 212.312 52.2539 211.914C51.9805 211.508 51.5742 211.188 51.0352 210.953C50.6602 210.789 49.8789 210.605 48.6914 210.402C47.0586 210.129 45.8828 209.711 45.1641 209.148C44.4453 208.586 44.0859 207.785 44.0859 206.746C44.0859 205.715 44.4961 204.828 45.3164 204.086C46.1445 203.344 47.2344 202.973 48.5859 202.973C49.9609 202.973 51.1445 203.406 52.1367 204.273ZM66.5508 204.273V203.945C66.5508 203.711 66.5938 203.543 66.6797 203.441C66.7734 203.34 66.8945 203.289 67.043 203.289C67.1914 203.289 67.3086 203.34 67.3945 203.441C67.4883 203.543 67.5352 203.711 67.5352 203.945V206.453C67.5352 206.688 67.4883 206.855 67.3945 206.957C67.3086 207.059 67.1914 207.109 67.043 207.109C66.9023 207.109 66.7852 207.062 66.6914 206.969C66.6055 206.875 66.5586 206.723 66.5508 206.512C66.5117 205.855 66.1719 205.266 65.5312 204.742C64.8984 204.219 64.0664 203.957 63.0352 203.957C61.9492 203.957 61.0859 204.238 60.4453 204.801C59.8047 205.355 59.4844 206.012 59.4844 206.77C59.4844 207.16 59.5742 207.516 59.7539 207.836C59.9336 208.156 60.1719 208.418 60.4688 208.621C60.7656 208.816 61.1016 208.977 61.4766 209.102C61.8516 209.219 62.4375 209.344 63.2344 209.477C64.5703 209.695 65.4922 209.918 66 210.145C66.6797 210.449 67.1914 210.871 67.5352 211.41C67.8867 211.949 68.0625 212.586 68.0625 213.32C68.0625 214.445 67.6133 215.406 66.7148 216.203C65.8164 216.992 64.6055 217.387 63.082 217.387C61.3711 217.387 60.0039 216.852 58.9805 215.781V216.344C58.9805 216.578 58.9336 216.746 58.8398 216.848C58.7539 216.949 58.6367 217 58.4883 217C58.3477 217 58.2305 216.949 58.1367 216.848C58.043 216.746 57.9961 216.578 57.9961 216.344V213.625C57.9961 213.383 58.0391 213.211 58.125 213.109C58.2188 213.008 58.3398 212.957 58.4883 212.957C58.6289 212.957 58.7422 213.004 58.8281 213.098C58.9219 213.191 58.9727 213.344 58.9805 213.555C59.0195 214.273 59.4023 214.93 60.1289 215.523C60.8633 216.109 61.8477 216.402 63.082 216.402C64.3164 216.402 65.2891 216.094 66 215.477C66.7188 214.859 67.0781 214.129 67.0781 213.285C67.0781 212.77 66.9414 212.312 66.668 211.914C66.3945 211.508 65.9883 211.188 65.4492 210.953C65.0742 210.789 64.293 210.605 63.1055 210.402C61.4727 210.129 60.2969 209.711 59.5781 209.148C58.8594 208.586 58.5 207.785 58.5 206.746C58.5 205.715 58.9102 204.828 59.7305 204.086C60.5586 203.344 61.6484 202.973 63 202.973C64.375 202.973 65.5586 203.406 66.5508 204.273Z" fill="#C1A300"/>
<path d="M47.4022 136.44C36.821 136.44 27.9655 134.308 25.5368 131.43C25.1107 131.935 24.8551 132.468 24.8551 133.015C24.8551 136.653 34.9462 139.603 47.4022 139.603C59.8581 139.603 69.9493 136.653 69.9493 133.015C69.9493 132.468 69.6936 131.942 69.2675 131.43C66.8388 134.308 57.9833 136.44 47.4022 136.44Z" fill="white"/>
<path d="M61.9459 132.496C60.5683 131.238 54.5817 130.293 47.4022 130.293C40.2226 130.293 34.2361 131.238 32.8584 132.496H61.9459Z" fill="white"/>
<path d="M67.5845 40.8242C65.7381 40.0141 57.6851 39.4029 48.0271 39.4029C38.3691 39.4029 30.3232 40.0141 28.4697 40.8242H67.5845Z" fill="white"/>
<path d="M52.7354 118.369V66.5634C55.441 65.9239 57.259 64.7584 57.259 63.4224C57.259 63.1168 57.1525 62.8255 56.982 62.5483C55.9878 64.1402 52.359 65.3269 48.0271 65.3269C43.6952 65.3269 40.0664 64.1473 39.0722 62.5483C38.8946 62.8326 38.7952 63.124 38.7952 63.4224C38.7952 64.7584 40.6132 65.9239 43.3188 66.5634V118.369C37.2258 119.527 32.8158 122.867 32.8158 126.811C32.8158 127.55 32.9862 128.261 33.2774 128.943C34.9178 125.07 40.8901 122.192 48.0271 122.192C55.1641 122.192 61.1435 125.07 62.7768 128.943C63.068 128.261 63.2384 127.55 63.2384 126.811C63.2384 122.867 58.8284 119.527 52.7354 118.369ZM45.5558 118.056V66.9401C46.3441 67.0253 47.1749 67.0751 48.0271 67.0751C48.929 67.0751 49.7954 67.0182 50.6191 66.9258V118.07C49.7741 117.985 48.9077 117.928 48.0271 117.928C47.182 117.928 46.3654 117.978 45.5558 118.056Z" fill="white"/>
<path d="M55.2706 46.7509C55.7819 47.76 56.0943 48.8828 56.1441 50.0696C56.35 54.774 52.4655 58.7607 47.4661 58.9667C42.559 59.1728 38.4188 55.6552 38.078 51.0716C37.8649 51.832 37.7371 52.6208 37.7371 53.438C37.7371 58.6398 42.3459 62.8539 48.0342 62.8539C53.7225 62.8539 58.3313 58.6398 58.3313 53.438C58.3242 50.8228 57.1525 48.4564 55.2706 46.7509Z" fill="white"/>
<path d="M54.2977 47.2199H41.7636C39.8249 47.2199 38.2555 45.6494 38.2555 43.7094V42.416C38.2555 41.9328 38.6461 41.5348 39.1361 41.5348H56.9394C57.4223 41.5348 57.82 41.9257 57.82 42.416V43.7094C57.8058 45.6494 56.2364 47.2199 54.2977 47.2199Z" fill="white"/>
<path d="M16.5251 28.0328C16.5251 33.9168 21.3896 38.6923 27.3903 38.6923H68.671C74.6717 38.6923 79.5362 33.9168 79.5362 28.0328H16.5251ZM66.498 37.9817H29.5633C24.3651 37.9817 20.1468 33.8458 20.1468 28.7434H75.9145C75.9145 33.8458 71.6962 37.9817 66.498 37.9817Z" fill="white"/>
<path d="M37.6732 28.0328H41.1742C38.291 26.0501 36.3381 22.8522 36.1038 19.1925C36.0754 18.7092 35.8694 18.2615 35.5001 17.9418L33.4904 16.2433C33.3697 16.1438 33.1851 16.2291 33.1851 16.3855V17.3804C33.1851 21.5091 34.8965 25.2968 37.6732 28.0328Z" fill="white"/>
<path d="M59.8936 10.9775H40.3717C44.0432 12.7541 50.0226 13.1094 54.9723 13.1094H58.3029C59.2261 13.1094 59.9717 13.8414 59.9717 14.751V18.1336C59.9717 22.1771 57.891 25.8369 54.738 28.0328H58.5088C61.2003 25.3963 62.8691 21.7579 62.8691 17.7286V13.9053C62.8762 12.2922 61.5412 10.9775 59.8936 10.9775Z" fill="white"/>
<path d="M36.4162 159.763C36.9559 158.513 38.8591 157.646 41.0393 157.646H53.829C56.002 157.646 57.9052 158.513 58.4449 159.756L64.8007 171.389C64.8504 171.503 65.0351 171.581 65.2552 171.581H66.8104C67.1158 171.581 67.3359 171.425 67.2578 171.268L59.9788 156.032C59.3539 154.732 57.1951 153.822 54.7167 153.822H40.1374C37.659 153.822 35.4859 154.739 34.8752 156.04L27.6743 171.268C27.5962 171.425 27.8235 171.581 28.1217 171.581H29.677C29.89 171.581 30.0817 171.503 30.1314 171.389L36.4162 159.763Z" fill="white"/>
<path d="M36.4162 151.42C36.9559 152.671 38.8591 153.538 41.0393 153.538H53.829C56.002 153.538 57.9052 152.671 58.4449 151.427L64.8007 139.794C64.8504 139.681 65.0351 139.603 65.2552 139.603H66.8104C67.1158 139.603 67.3359 139.759 67.2578 139.915L59.9788 155.151C59.3539 156.452 57.1951 157.361 54.7167 157.361H40.1374C37.659 157.361 35.4859 156.445 34.8752 155.144L27.6743 139.922C27.5962 139.766 27.8235 139.61 28.1217 139.61H29.677C29.89 139.61 30.0817 139.688 30.1314 139.802L36.4162 151.42Z" fill="white"/>
<path d="M20.1397 232.355C22.7886 234.778 34.3355 236.597 48.1762 236.597C62.017 236.597 73.5639 234.778 76.2128 232.355H20.1397Z" fill="white"/>
<path d="M80.218 232.696C81.0772 233.271 81.553 233.883 81.553 234.515C81.553 238.132 66.4483 241.06 47.8212 241.06C29.1941 241.06 14.0893 238.132 14.0893 234.515C14.0893 234.096 14.3023 233.691 14.6858 233.293C12.9317 234.117 11.9588 235.02 11.9588 235.972C11.9588 239.852 28.1714 243 48.1762 243C68.181 243 84.3936 239.852 84.3936 235.972C84.3936 234.792 82.881 233.676 80.218 232.696Z" fill="white"/>
<path d="M12.5057 205.066C12.5057 206.587 10.9007 207.824 8.91942 207.824H7.88971V211.377H13.5354C15.5167 211.377 17.1216 210.14 17.1216 208.619V205.066C17.1216 204.626 16.66 204.27 16.0919 204.27H13.5425C12.9743 204.27 12.5057 204.626 12.5057 205.066Z" fill="white"/>
<path d="M82.0999 205.066C82.0999 206.587 83.7048 207.824 85.6861 207.824H86.7158V211.377H81.0701C79.0888 211.377 77.4839 210.14 77.4839 208.619V205.066C77.4839 204.626 77.9455 204.27 78.5136 204.27H81.063C81.6383 204.27 82.0999 204.626 82.0999 205.066Z" fill="white"/>
<path d="M89.2865 207.824H83.1722V211.377H86.9572C88.3988 211.377 89.5493 212.563 89.5493 214.006C89.528 221.581 83.3852 227.721 75.808 227.721H18.7762C11.199 227.721 5.05623 221.581 5.03493 214.006C5.02783 212.563 6.17826 211.377 7.62696 211.377H10.0628C10.567 211.377 10.9788 210.965 10.9788 210.46V208.747C10.9788 208.243 10.567 207.831 10.0628 207.831H7.06594C4.21116 207.831 1.85348 210.126 1.83928 212.99C1.79667 223.088 9.97043 231.282 20.0474 231.282H76.3051C86.382 231.282 94.5487 223.088 94.5132 212.99C94.499 210.126 92.1413 207.824 89.2865 207.824Z" fill="white"/>
<path d="M13.0241 192.566V200.028C13.0241 200.412 13.3294 200.717 13.7058 200.717H16.5606C16.937 200.717 17.2423 200.412 17.2423 200.028V195.913C17.2423 186.405 24.8693 178.687 34.2787 178.687H60.6606C70.07 178.687 77.697 186.398 77.697 195.913V200.028C77.697 200.412 78.0023 200.717 78.3787 200.717H81.2335C81.6099 200.717 81.9152 200.412 81.9152 200.028V192.566C81.9152 182.937 74.1959 175.134 64.6729 175.134H30.2664C20.7433 175.134 13.0241 182.944 13.0241 192.566Z" fill="white"/>
<path d="M61.7826 94.8325V98.3857H71.7246C84.2729 98.3857 94.4493 108.569 94.4493 121.126C94.4493 132.51 85.2316 141.734 73.8551 141.734H70.3043V145.288H74.0255C87.2697 145.288 98 134.543 98 121.297C98 106.686 86.1619 94.8325 71.5542 94.8325H61.7826Z" fill="white"/>
<path d="M94.6978 64.2752H92.0632C90.6358 64.2752 89.4712 65.2488 89.4712 66.4497V91.9402C89.4712 93.1412 90.6287 94.1148 92.0632 94.1148H94.6978C96.1252 94.1148 97.2899 93.1412 97.2899 91.9402V66.4568C97.2899 65.2487 96.1323 64.2752 94.6978 64.2752ZM96.5797 90.7535C96.5797 91.9544 95.4222 92.928 93.9877 92.928H92.7733C91.3459 92.928 90.1813 91.9544 90.1813 90.7535V67.9705C90.1813 66.7695 91.3388 65.7959 92.7733 65.7959H93.9877C95.4151 65.7959 96.5797 66.7695 96.5797 67.9705V90.7535Z" fill="white"/>
<path d="M52.7425 5.13611L51.031 9.7197C50.818 10.2953 51.1091 10.9278 51.6772 11.1481L56.2577 12.8607C56.8329 13.0739 57.4649 12.7825 57.6851 12.214L59.3965 7.63044C59.6096 7.05482 59.3184 6.42235 58.7503 6.20206L54.1699 4.48943C53.5946 4.26913 52.9555 4.56049 52.7425 5.13611ZM55.2209 10.5654L53.971 10.0963C53.3958 9.88315 53.1046 9.24358 53.3248 8.66796L53.7935 7.41724C54.0065 6.84163 54.6457 6.55027 55.2209 6.77057L56.4707 7.23959C57.0459 7.45278 57.3371 8.09235 57.117 8.66796L56.6483 9.91868C56.4281 10.4943 55.789 10.7857 55.2209 10.5654Z" fill="white"/>
<path d="M41.0109 5.51274V10.4019C41.0109 11.0131 41.508 11.5105 42.1187 11.5105H47.0045C47.6152 11.5105 48.1123 11.0131 48.1123 10.4019V5.51274C48.1123 4.9016 47.6152 4.40415 47.0045 4.40415H42.1187C41.508 4.40415 41.0109 4.9016 41.0109 5.51274ZM45.2291 9.73392H43.8941C43.2833 9.73392 42.7862 9.23647 42.7862 8.62533V7.28933C42.7862 6.67818 43.2833 6.18074 43.8941 6.18074H45.2291C45.8399 6.18074 46.337 6.67818 46.337 7.28933V8.62533C46.337 9.24358 45.8399 9.73392 45.2291 9.73392Z" fill="white"/>
<path d="M45.9606 3.88539L48.2259 8.22026C48.51 8.76035 49.1775 8.97354 49.7172 8.68928L54.0491 6.42236C54.5888 6.1381 54.8019 5.4701 54.5178 4.93002L52.2525 0.595145C51.9684 0.0550622 51.3009 -0.158128 50.7612 0.126126L46.4293 2.39305C45.8896 2.67731 45.6836 3.3453 45.9606 3.88539ZM51.6559 5.66908L50.47 6.28733C49.9303 6.57159 49.2628 6.3584 48.9787 5.81831L48.3609 4.63866C48.0768 4.09858 48.2899 3.43058 48.8296 3.14633L50.0155 2.52807C50.5552 2.24382 51.2228 2.45701 51.5068 2.99709L52.1246 4.18385C52.4087 4.71683 52.2028 5.38483 51.6559 5.66908Z" fill="white"/>
<path d="M3.55072 72.2414V39.339C3.55072 29.9515 11.1564 22.3477 20.5303 22.3477H25.5652V18.7945H20.8641C9.33841 18.7945 0 28.1465 0 39.6801V72.952C0 87.0013 11.3836 98.3857 25.4161 98.3857H35.5072V94.8325H26.1262C13.6561 94.8325 3.55072 84.7202 3.55072 72.2414Z" fill="white"/>
<path d="M71.7246 18.7945V22.3477H74.2172C83.8184 22.3477 91.6087 30.1363 91.6087 39.7512V62.8539H95.1594V38.6923C95.1594 27.7059 86.2542 18.7945 75.2754 18.7945H71.7246Z" fill="white"/>
</svg>
