<svg width="94" height="50" viewBox="0 0 94 50" fill="none" xmlns="http://www.w3.org/2000/svg">
<path d="M8.75781 15.7886V4.7943C8.75781 3.16002 10.0938 1.82288 11.7266 1.82288H43.0469C44.6797 1.82288 46.0156 3.16002 46.0156 4.7943V30.0514" stroke="#B4B2A8" stroke-width="2"/>
<path d="M46.0156 30.2V4.94286C46.0156 3.30858 47.3516 1.97144 48.9844 1.97144H81.7891C83.4219 1.97144 84.7578 3.30858 84.7578 4.94286V15.9371" stroke="#B4B2A8" stroke-width="2"/>
<path fill-rule="evenodd" clip-rule="evenodd" d="M89.2109 16.8286H84.6094C82.9766 16.8286 81.6406 18.1658 81.6406 19.8V30.2H11.875V19.8C11.875 18.1658 10.5391 16.8286 8.90625 16.8286H4.45312C2.82031 16.8286 1.48438 18.1658 1.48438 19.8V39.2629C1.48438 40.8972 2.82031 42.2343 4.45312 42.2343H8.90625V45.2058C8.90625 46.84 10.2422 48.1772 11.875 48.1772H16.4766C18.1094 48.1772 19.4453 46.84 19.4453 45.2058V42.2343H72.8828V45.2058C72.8828 46.84 74.2187 48.1772 75.8516 48.1772H81.9375C83.5703 48.1772 84.9063 46.84 84.9063 45.2058V42.2343H89.3594C90.9922 42.2343 92.3281 40.8972 92.3281 39.2629V19.8C92.0313 18.1658 90.6953 16.8286 89.2109 16.8286Z" stroke="#B4B2A8" stroke-width="2"/>
<path d="M16.3281 37.7772H75.7031" stroke="#B4B2A8" stroke-width="2"/>
</svg>
