<svg width="68" height="68" viewBox="0 0 68 68" fill="none" xmlns="http://www.w3.org/2000/svg">
<g clip-path="url(#clip0_24_131)">
<path d="M34 56.6667C35.5648 56.6667 36.8334 55.3981 36.8334 53.8333C36.8334 52.2685 35.5648 51 34 51C32.4352 51 31.1667 52.2685 31.1667 53.8333C31.1667 55.3981 32.4352 56.6667 34 56.6667Z" fill="#B4B2A8"/>
<path d="M34 39.6667C30.3329 39.6666 26.8087 41.0885 24.1684 43.6334C23.6273 44.1556 23.3159 44.8714 23.3026 45.6233C23.2893 46.3751 23.5753 47.1015 24.0975 47.6425C24.6198 48.1836 25.3356 48.495 26.0875 48.5083C26.8393 48.5215 27.5657 48.2356 28.1067 47.7134C29.7158 46.24 31.8183 45.4228 34 45.4228C36.1817 45.4228 38.2843 46.24 39.8934 47.7134C40.4344 48.2356 41.1608 48.5215 41.9126 48.5083C42.6645 48.495 43.3803 48.1836 43.9025 47.6425C44.4248 47.1015 44.7107 46.3751 44.6974 45.6233C44.6842 44.8714 44.3727 44.1556 43.8317 43.6334C41.1914 41.0885 37.6671 39.6666 34 39.6667Z" fill="#B4B2A8"/>
<path d="M34 25.5C30.5779 25.5022 27.1913 26.1933 24.0419 27.5319C20.8925 28.8705 18.0447 30.8293 15.6683 33.2917C15.4097 33.5651 15.2075 33.8869 15.0732 34.2385C14.939 34.5901 14.8753 34.9647 14.8858 35.341C14.8963 35.7172 14.9809 36.0877 15.1346 36.4312C15.2883 36.7748 15.5081 37.0847 15.7816 37.3433C16.3339 37.8656 17.0711 38.147 17.8309 38.1258C18.2072 38.1153 18.5776 38.0307 18.9212 37.877C19.2648 37.7233 19.5747 37.5035 19.8333 37.23C21.6834 35.3105 23.9015 33.7837 26.3551 32.7408C28.8087 31.698 31.4473 31.1605 34.1133 31.1605C36.7793 31.1605 39.4179 31.698 41.8715 32.7408C44.325 33.7837 46.5432 35.3105 48.3933 37.23C48.6557 37.4977 48.9686 37.7107 49.3139 37.8566C49.6592 38.0025 50.0301 38.0784 50.405 38.08C50.9586 38.0779 51.4996 37.9136 51.9609 37.6074C52.4223 37.3012 52.7838 36.8666 53.0008 36.3572C53.2178 35.8478 53.2808 35.286 53.182 34.7412C53.0833 34.1964 52.827 33.6924 52.445 33.2917C50.0553 30.8156 47.1892 28.8487 44.0192 27.5097C40.8493 26.1706 37.4411 25.487 34 25.5Z" fill="#B4B2A8"/>
<path d="M61.54 22.4683C54.1462 15.3356 44.2735 11.3497 34 11.3497C23.7266 11.3497 13.8538 15.3356 6.46002 22.4683C5.98186 23 5.72243 23.6928 5.73375 24.4078C5.74508 25.1228 6.02634 25.8071 6.5211 26.3233C7.01586 26.8396 7.68754 27.1497 8.40139 27.1914C9.11525 27.2332 9.81848 27.0034 10.37 26.5483C16.7099 20.4202 25.1825 16.9946 34 16.9946C42.8175 16.9946 51.2902 20.4202 57.63 26.5483C58.1553 27.0546 58.8555 27.3387 59.585 27.3416C59.9667 27.3402 60.3441 27.2616 60.6947 27.1107C61.0452 26.9598 61.3617 26.7396 61.625 26.4633C62.1416 25.9213 62.4226 25.1969 62.4067 24.4483C62.3908 23.6997 62.0792 22.9879 61.54 22.4683Z" fill="#B4B2A8"/>
</g>
<defs>
<clipPath id="clip0_24_131">
<rect width="68" height="68" fill="white"/>
</clipPath>
</defs>
</svg>
