<svg width="73" height="69" viewBox="0 0 73 69" fill="none" xmlns="http://www.w3.org/2000/svg">
<path d="M45.4202 53.6579V54.6579H46.4202V53.6579H45.4202ZM53.7162 33.3948L53.0025 32.6944L53.0023 32.6947L53.7162 33.3948ZM70.842 15.9422L71.5557 16.6426L71.5569 16.6414L70.842 15.9422ZM14.9744 15.9422L15.6883 15.2418L15.6792 15.2328L14.9744 15.9422ZM32.0901 33.3848L32.8041 32.6847L32.8039 32.6844L32.0901 33.3848ZM45.4101 53.6579V52.6579H44.4101V53.6579H45.4101ZM14.9744 15.9322L14.2595 16.6314L14.2599 16.6318L14.9744 15.9322ZM28.1636 15.0021V16.0021H29.1061L29.1618 15.0612L28.1636 15.0021ZM23.5222 24.6635L24.1776 25.4189L24.9797 24.7229L24.2368 23.964L23.5222 24.6635ZM15.0884 5.50067C15.0884 4.94839 14.6407 4.50067 14.0884 4.50067C13.5362 4.50067 13.0884 4.94839 13.0884 5.50067H15.0884ZM13.0884 10.5014C13.0884 11.0537 13.5362 11.5014 14.0884 11.5014C14.6407 11.5014 15.0884 11.0537 15.0884 10.5014H13.0884ZM7.97715 7.02156C7.58533 6.63233 6.95217 6.63443 6.56294 7.02625C6.17371 7.41806 6.17581 8.05122 6.56763 8.44045L7.97715 7.02156ZM10.1317 11.981C10.5235 12.3702 11.1567 12.3681 11.5459 11.9763C11.9351 11.5845 11.933 10.9513 11.5412 10.5621L10.1317 11.981ZM6.56763 21.5637C6.17581 21.953 6.17371 22.5861 6.56294 22.9779C6.95217 23.3698 7.58533 23.3718 7.97715 22.9826L6.56763 21.5637ZM11.5412 19.4421C11.933 19.0529 11.9351 18.4197 11.5459 18.0279C11.1567 17.6361 10.5235 17.634 10.1317 18.0232L11.5412 19.4421ZM16.6357 10.5621C16.2438 10.9513 16.2417 11.5845 16.631 11.9763C17.0202 12.3681 17.6534 12.3702 18.0452 11.981L16.6357 10.5621ZM21.6093 8.44045C22.0011 8.05122 22.0032 7.41806 21.614 7.02625C21.2247 6.63443 20.5916 6.63233 20.1998 7.02156L21.6093 8.44045ZM5.02722 14.0021C4.47493 14.0021 4.02722 14.4498 4.02722 15.0021C4.02722 15.5544 4.47493 16.0021 5.02722 16.0021V14.0021ZM10.0612 16.0021C10.6135 16.0021 11.0612 15.5544 11.0612 15.0021C11.0612 14.4498 10.6135 14.0021 10.0612 14.0021V16.0021ZM15.0884 19.0027C15.0884 18.4504 14.6407 18.0027 14.0884 18.0027C13.5362 18.0027 13.0884 18.4504 13.0884 19.0027H15.0884ZM13.0884 24.0034C13.0884 24.5557 13.5362 25.0034 14.0884 25.0034C14.6407 25.0034 15.0884 24.5557 15.0884 24.0034H13.0884ZM46.4202 53.6579C46.4202 46.3498 49.2967 39.3298 54.4302 34.095L53.0023 32.6947C47.5039 38.3015 44.4202 45.8236 44.4202 53.6579H46.4202ZM71.5569 16.6414C72.5304 15.646 71.8009 14.0121 70.4493 14.0121V16.0121C70.0642 16.0121 69.8382 15.5384 70.127 15.2431L71.5569 16.6414ZM15.3671 14.0121C13.9961 14.0121 13.2837 15.6722 14.2697 16.6517L15.6792 15.2328C15.9806 15.5322 15.7514 16.0121 15.3671 16.0121V14.0121ZM31.3761 34.085C36.5096 39.3198 39.3862 46.3398 39.3862 53.6479H41.3862C41.3862 45.8136 38.3024 38.2915 32.8041 32.6847L31.3761 34.085ZM39.3862 53.6479V61.7391H41.3862V53.6479H39.3862ZM39.3862 61.7391C39.3862 63.5409 37.9171 65.0097 36.0871 65.0097V67.0097C39.0092 67.0097 41.3862 64.6579 41.3862 61.7391H39.3862ZM36.0871 65.0097H28.4857V67.0097H36.0871V65.0097ZM28.4857 65.0097C27.5476 65.0097 26.8011 65.7708 26.8011 66.6898H28.8011C28.8011 66.8687 28.6588 67.0097 28.4857 67.0097V65.0097ZM26.8011 66.6898V67.3199H28.8011V66.6898H26.8011ZM26.8011 67.3199C26.8011 68.268 27.5768 69 28.4857 69V67C28.6496 67 28.8011 67.1319 28.8011 67.3199H26.8011ZM28.4857 69H57.3105V67H28.4857V69ZM57.3105 69C58.2487 69 58.9952 68.2389 58.9952 67.3199H56.9952C56.9952 67.141 57.1375 67 57.3105 67V69ZM58.9952 67.3199V66.6898H56.9952V67.3199H58.9952ZM58.9952 66.6898C58.9952 65.7417 58.2194 65.0097 57.3105 65.0097V67.0097C57.1467 67.0097 56.9952 66.8778 56.9952 66.6898H58.9952ZM57.3105 65.0097H49.7092V67.0097H57.3105V65.0097ZM49.7092 65.0097C47.8791 65.0097 46.4101 63.5409 46.4101 61.7391H44.4101C44.4101 64.6579 46.7871 67.0097 49.7092 67.0097V65.0097ZM46.4101 61.7391V53.6579H44.4101V61.7391H46.4101ZM45.4101 54.6579H45.4202V52.6579H45.4101V54.6579ZM18.1157 20.0027H53.3538V18.0027H18.1157V20.0027ZM57.381 20.0027H63.4218V18.0027H57.381V20.0027ZM15.6894 15.2331C15.9782 15.5284 15.7522 16.0021 15.3671 16.0021V14.0021C14.0155 14.0021 13.2861 15.636 14.2595 16.6314L15.6894 15.2331ZM15.3671 16.0021H28.1636V14.0021H15.3671V16.0021ZM29.1618 15.0612C29.1665 14.9822 29.1938 14.705 29.1938 14.502H27.1938C27.1938 14.6391 27.1808 14.6819 27.1653 14.943L29.1618 15.0612ZM29.1938 14.502C29.1938 6.48237 22.6587 0 14.6019 0V2C21.5667 2 27.1938 7.59943 27.1938 14.502H29.1938ZM14.6019 0C6.54611 0 0 6.48141 0 14.502H2C2 7.60039 7.63622 2 14.6019 2V0ZM0 14.502C0 22.5217 6.53507 29.004 14.5919 29.004V27.004C7.62712 27.004 2 21.4046 2 14.502H0ZM14.5919 29.004C18.2671 29.004 21.6183 27.6393 24.1776 25.4189L22.8668 23.9082C20.6538 25.8283 17.7628 27.004 14.5919 27.004V29.004ZM24.2368 23.964L15.689 15.2327L14.2599 16.6318L22.8076 25.3631L24.2368 23.964ZM13.0884 5.50067V10.5014H15.0884V5.50067H13.0884ZM6.56763 8.44045L10.1317 11.981L11.5412 10.5621L7.97715 7.02156L6.56763 8.44045ZM7.97715 22.9826L11.5412 19.4421L10.1317 18.0232L6.56763 21.5637L7.97715 22.9826ZM18.0452 11.981L21.6093 8.44045L20.1998 7.02156L16.6357 10.5621L18.0452 11.981ZM5.02722 16.0021H10.0612V14.0021H5.02722V16.0021ZM13.0884 19.0027V24.0034H15.0884V19.0027H13.0884ZM54.43 34.0952L71.5557 16.6426L70.1282 15.2418L53.0025 32.6944L54.43 34.0952ZM70.4493 14.0121H15.3671V16.0121H70.4493V14.0121ZM14.2607 16.6426L31.3763 34.0852L32.8039 32.6844L15.6882 15.2418L14.2607 16.6426Z" fill="#B4B2A8"/>
</svg>
