<svg width="81" height="45" viewBox="0 0 81 45" fill="none" xmlns="http://www.w3.org/2000/svg">
<path d="M32.0476 44H6.00767C3.24344 44 1 41.7537 1 38.9859V12.9125C1 10.1447 3.24344 7.89838 6.00767 7.89838H32.0476C34.8118 7.89838 37.0552 10.1447 37.0552 12.9125V38.9859C37.0552 41.7537 34.8118 44 32.0476 44Z" stroke="#B4B2A8" stroke-width="2" stroke-miterlimit="10"/>
<path d="M65.4087 43.629L40.6407 35.5863C38.0067 34.7339 36.5645 31.906 37.4258 29.2685L45.4581 4.46873C46.3094 1.83131 49.1337 0.387243 51.7678 1.24967L76.5357 9.29231C79.1698 10.1447 80.612 12.9727 79.7507 15.6101L71.7183 40.4099C70.867 43.0373 68.0427 44.4814 65.4087 43.629Z" stroke="#B4B2A8" stroke-width="2" stroke-miterlimit="10"/>
<path d="M19.0276 30.9633C21.7933 30.9633 24.0353 28.7184 24.0353 25.9492C24.0353 23.18 21.7933 20.9351 19.0276 20.9351C16.262 20.9351 14.0199 23.18 14.0199 25.9492C14.0199 28.7184 16.262 30.9633 19.0276 30.9633Z" stroke="#B4B2A8" stroke-width="2" stroke-miterlimit="10"/>
<path d="M46.1191 32.8787C48.3317 32.8787 50.1253 31.0828 50.1253 28.8674C50.1253 26.652 48.3317 24.8561 46.1191 24.8561C43.9066 24.8561 42.113 26.652 42.113 28.8674C42.113 31.0828 43.9066 32.8787 46.1191 32.8787Z" stroke="#B4B2A8" stroke-width="2" stroke-miterlimit="10"/>
<path d="M58.5882 26.4506C60.8008 26.4506 62.5944 24.6547 62.5944 22.4393C62.5944 20.2239 60.8008 18.428 58.5882 18.428C56.3757 18.428 54.5821 20.2239 54.5821 22.4393C54.5821 24.6547 56.3757 26.4506 58.5882 26.4506Z" stroke="#B4B2A8" stroke-width="2" stroke-miterlimit="10"/>
<path d="M71.0573 20.0225C73.2699 20.0225 75.0635 18.2266 75.0635 16.0112C75.0635 13.7958 73.2699 11.9999 71.0573 11.9999C68.8448 11.9999 67.0512 13.7958 67.0512 16.0112C67.0512 18.2266 68.8448 20.0225 71.0573 20.0225Z" stroke="#B4B2A8" stroke-width="2" stroke-miterlimit="10"/>
</svg>
