<svg width="45" height="129" viewBox="0 0 45 129" fill="none" xmlns="http://www.w3.org/2000/svg">
<path d="M16.8286 96.96H13.8369V99.5488H14.4438C14.5513 99.5488 14.6283 99.5703 14.6748 99.6133C14.7214 99.6527 14.7446 99.7064 14.7446 99.7744C14.7446 99.8389 14.7214 99.8926 14.6748 99.9355C14.6283 99.9785 14.5513 100 14.4438 100H12.8755C12.7681 100 12.6911 99.9785 12.6445 99.9355C12.598 99.8926 12.5747 99.8389 12.5747 99.7744C12.5747 99.7064 12.598 99.6527 12.6445 99.6133C12.6911 99.5703 12.7681 99.5488 12.8755 99.5488H13.3857V94.167H13.1064C12.9954 94.167 12.9167 94.1473 12.8701 94.1079C12.8236 94.0649 12.8003 94.0094 12.8003 93.9414C12.8003 93.8734 12.8236 93.8197 12.8701 93.7803C12.9167 93.7373 12.9954 93.7158 13.1064 93.7158H14.4438C14.5513 93.7158 14.6283 93.7373 14.6748 93.7803C14.7214 93.8197 14.7446 93.8734 14.7446 93.9414C14.7446 94.0094 14.7214 94.0649 14.6748 94.1079C14.6283 94.1473 14.5513 94.167 14.4438 94.167H13.8369V96.5088H16.8286V94.167H16.2271C16.1196 94.167 16.0426 94.1473 15.9961 94.1079C15.9495 94.0649 15.9263 94.0094 15.9263 93.9414C15.9263 93.8734 15.9478 93.8197 15.9907 93.7803C16.0373 93.7373 16.116 93.7158 16.2271 93.7158H17.5645C17.6755 93.7158 17.7542 93.7373 17.8008 93.7803C17.8473 93.8197 17.8706 93.8734 17.8706 93.9414C17.8706 94.0094 17.8473 94.0649 17.8008 94.1079C17.7542 94.1473 17.6755 94.167 17.5645 94.167H17.2852V99.5488H17.7954C17.9028 99.5488 17.9798 99.5703 18.0264 99.6133C18.0729 99.6527 18.0962 99.7064 18.0962 99.7744C18.0962 99.8389 18.0729 99.8926 18.0264 99.9355C17.9798 99.9785 17.9028 100 17.7954 100H16.2271C16.1196 100 16.0426 99.9785 15.9961 99.9355C15.9495 99.8926 15.9263 99.8389 15.9263 99.7744C15.9263 99.7064 15.9478 99.6527 15.9907 99.6133C16.0373 99.5703 16.116 99.5488 16.2271 99.5488H16.8286V96.96ZM23.521 94.167V94.0166C23.521 93.9092 23.5407 93.8322 23.5801 93.7856C23.623 93.7391 23.6785 93.7158 23.7466 93.7158C23.8146 93.7158 23.8683 93.7391 23.9077 93.7856C23.9507 93.8322 23.9722 93.9092 23.9722 94.0166V95.166C23.9722 95.2734 23.9507 95.3504 23.9077 95.397C23.8683 95.4435 23.8146 95.4668 23.7466 95.4668C23.6821 95.4668 23.6284 95.4453 23.5854 95.4023C23.5461 95.3594 23.5246 95.2896 23.521 95.1929C23.5031 94.8921 23.3473 94.6217 23.0537 94.3818C22.7637 94.1419 22.3823 94.022 21.9097 94.022C21.4119 94.022 21.0163 94.1509 20.7227 94.4087C20.429 94.6629 20.2822 94.9637 20.2822 95.311C20.2822 95.4901 20.3234 95.653 20.4058 95.7998C20.4881 95.9466 20.5973 96.0666 20.7334 96.1597C20.8695 96.2492 21.0234 96.3226 21.1953 96.3799C21.3672 96.4336 21.6357 96.4909 22.001 96.5518C22.6133 96.652 23.0358 96.7541 23.2686 96.8579C23.5801 96.9976 23.8146 97.1909 23.9722 97.438C24.1333 97.6851 24.2139 97.9769 24.2139 98.3135C24.2139 98.8291 24.008 99.2695 23.5962 99.6348C23.1844 99.9964 22.6294 100.177 21.9312 100.177C21.147 100.177 20.5203 99.932 20.0513 99.4414V99.6992C20.0513 99.8066 20.0298 99.8836 19.9868 99.9302C19.9474 99.9767 19.8937 100 19.8257 100C19.7612 100 19.7075 99.9767 19.6646 99.9302C19.6216 99.8836 19.6001 99.8066 19.6001 99.6992V98.4531C19.6001 98.3421 19.6198 98.2633 19.6592 98.2168C19.7021 98.1702 19.7576 98.147 19.8257 98.147C19.8901 98.147 19.9421 98.1685 19.9814 98.2114C20.0244 98.2544 20.0477 98.3242 20.0513 98.4209C20.0692 98.7503 20.2446 99.0511 20.5776 99.3232C20.9142 99.5918 21.3654 99.7261 21.9312 99.7261C22.4969 99.7261 22.9427 99.5846 23.2686 99.3018C23.598 99.0189 23.7627 98.6841 23.7627 98.2974C23.7627 98.061 23.7 97.8516 23.5747 97.6689C23.4494 97.4827 23.2632 97.3359 23.0161 97.2285C22.8442 97.1533 22.4862 97.0692 21.9419 96.9761C21.1935 96.8507 20.6546 96.6592 20.3252 96.4014C19.9958 96.1436 19.8311 95.7765 19.8311 95.3003C19.8311 94.8276 20.019 94.4212 20.395 94.0811C20.7746 93.7409 21.2741 93.5708 21.8936 93.5708C22.5238 93.5708 23.0662 93.7695 23.521 94.167ZM30.1274 94.167V94.0166C30.1274 93.9092 30.1471 93.8322 30.1865 93.7856C30.2295 93.7391 30.285 93.7158 30.353 93.7158C30.4211 93.7158 30.4748 93.7391 30.5142 93.7856C30.5571 93.8322 30.5786 93.9092 30.5786 94.0166V95.166C30.5786 95.2734 30.5571 95.3504 30.5142 95.397C30.4748 95.4435 30.4211 95.4668 30.353 95.4668C30.2886 95.4668 30.2349 95.4453 30.1919 95.4023C30.1525 95.3594 30.131 95.2896 30.1274 95.1929C30.1095 94.8921 29.9538 94.6217 29.6602 94.3818C29.3701 94.1419 28.9888 94.022 28.5161 94.022C28.0184 94.022 27.6227 94.1509 27.3291 94.4087C27.0355 94.6629 26.8887 94.9637 26.8887 95.311C26.8887 95.4901 26.9299 95.653 27.0122 95.7998C27.0946 95.9466 27.2038 96.0666 27.3398 96.1597C27.4759 96.2492 27.6299 96.3226 27.8018 96.3799C27.9736 96.4336 28.2422 96.4909 28.6074 96.5518C29.2197 96.652 29.6423 96.7541 29.875 96.8579C30.1865 96.9976 30.4211 97.1909 30.5786 97.438C30.7397 97.6851 30.8203 97.9769 30.8203 98.3135C30.8203 98.8291 30.6144 99.2695 30.2026 99.6348C29.7909 99.9964 29.2358 100.177 28.5376 100.177C27.7534 100.177 27.1268 99.932 26.6577 99.4414V99.6992C26.6577 99.8066 26.6362 99.8836 26.5933 99.9302C26.5539 99.9767 26.5002 100 26.4321 100C26.3677 100 26.314 99.9767 26.271 99.9302C26.228 99.8836 26.2065 99.8066 26.2065 99.6992V98.4531C26.2065 98.3421 26.2262 98.2633 26.2656 98.2168C26.3086 98.1702 26.3641 98.147 26.4321 98.147C26.4966 98.147 26.5485 98.1685 26.5879 98.2114C26.6309 98.2544 26.6541 98.3242 26.6577 98.4209C26.6756 98.7503 26.8511 99.0511 27.1841 99.3232C27.5207 99.5918 27.9718 99.7261 28.5376 99.7261C29.1034 99.7261 29.5492 99.5846 29.875 99.3018C30.2044 99.0189 30.3691 98.6841 30.3691 98.2974C30.3691 98.061 30.3065 97.8516 30.1812 97.6689C30.0558 97.4827 29.8696 97.3359 29.6226 97.2285C29.4507 97.1533 29.0926 97.0692 28.5483 96.9761C27.8 96.8507 27.2611 96.6592 26.9316 96.4014C26.6022 96.1436 26.4375 95.7765 26.4375 95.3003C26.4375 94.8276 26.6255 94.4212 27.0015 94.0811C27.381 93.7409 27.8805 93.5708 28.5 93.5708C29.1302 93.5708 29.6727 93.7695 30.1274 94.167Z" fill="#C1A300"/>
<path d="M21.7663 62.886C16.9076 62.886 12.8413 61.9034 11.7261 60.5769C11.5304 60.8094 11.413 61.0551 11.413 61.3073C11.413 62.9843 16.0467 64.3436 21.7663 64.3436C27.4859 64.3436 32.1196 62.9843 32.1196 61.3073C32.1196 61.0551 32.0022 60.8127 31.8065 60.5769C30.6913 61.9034 26.625 62.886 21.7663 62.886Z" fill="#C1A300"/>
<path d="M28.4446 61.0682C27.812 60.4885 25.063 60.0528 21.7663 60.0528C18.4696 60.0528 15.7207 60.4885 15.088 61.0682H28.4446Z" fill="#C1A300"/>
<path d="M31.0337 18.8161C30.1859 18.4427 26.488 18.161 22.0533 18.161C17.6185 18.161 13.9239 18.4427 13.0728 18.8161H31.0337Z" fill="#C1A300"/>
<path d="M24.2152 54.5568V30.6794C25.4576 30.3847 26.2924 29.8475 26.2924 29.2317C26.2924 29.0909 26.2435 28.9566 26.1652 28.8289C25.7087 29.5625 24.0424 30.1095 22.0533 30.1095C20.0641 30.1095 18.3978 29.5658 17.9413 28.8289C17.8598 28.9599 17.8141 29.0942 17.8141 29.2317C17.8141 29.8475 18.6489 30.3847 19.8913 30.6794V54.5568C17.0935 55.0907 15.0685 56.6301 15.0685 58.4479C15.0685 58.7886 15.1467 59.1161 15.2804 59.4305C16.0337 57.6455 18.7761 56.3189 22.0533 56.3189C25.3304 56.3189 28.0761 57.6455 28.8261 59.4305C28.9598 59.1161 29.038 58.7886 29.038 58.4479C29.038 56.6301 27.013 55.0907 24.2152 54.5568ZM20.9185 54.4127V30.853C21.2804 30.8923 21.662 30.9153 22.0533 30.9153C22.4674 30.9153 22.8652 30.8891 23.2435 30.8465V54.4192C22.8554 54.3799 22.4576 54.3537 22.0533 54.3537C21.6652 54.3537 21.2902 54.3766 20.9185 54.4127Z" fill="#C1A300"/>
<path d="M25.3793 21.5477C25.6141 22.0128 25.7576 22.5304 25.7804 23.0773C25.875 25.2456 24.0913 27.0831 21.7957 27.1781C19.5424 27.2731 17.6413 25.6518 17.4848 23.5392C17.387 23.8896 17.3283 24.2532 17.3283 24.6299C17.3283 27.0274 19.4446 28.9697 22.0565 28.9697C24.6685 28.9697 26.7848 27.0274 26.7848 24.6299C26.7815 23.4245 26.2435 22.3338 25.3793 21.5477Z" fill="#C1A300"/>
<path d="M24.9326 21.7639H19.1772C18.287 21.7639 17.5663 21.0401 17.5663 20.1459V19.5498C17.5663 19.3271 17.7457 19.1436 17.9707 19.1436H26.1457C26.3674 19.1436 26.55 19.3238 26.55 19.5498V20.1459C26.5435 21.0401 25.8228 21.7639 24.9326 21.7639Z" fill="#C1A300"/>
<path d="M7.58804 12.9205C7.58804 15.6325 9.82174 17.8335 12.5772 17.8335H31.5326C34.288 17.8335 36.5217 15.6325 36.5217 12.9205H7.58804ZM30.5348 17.506H13.575C11.188 17.506 9.25109 15.5997 9.25109 13.248H34.8587C34.8587 15.5997 32.9217 17.506 30.5348 17.506Z" fill="#C1A300"/>
<path d="M17.2989 12.9205H18.9065C17.5826 12.0066 16.6859 10.5327 16.5783 8.84591C16.5652 8.62319 16.4707 8.41684 16.3011 8.26945L15.3783 7.48664C15.3228 7.44079 15.238 7.48009 15.238 7.55215V8.0107C15.238 9.91368 16.0239 11.6594 17.2989 12.9205Z" fill="#C1A300"/>
<path d="M27.5022 5.0596H18.538C20.2239 5.87844 22.9696 6.04221 25.2424 6.04221H26.7717C27.1957 6.04221 27.538 6.37957 27.538 6.79882V8.35789C27.538 10.2216 26.5826 11.9084 25.1348 12.9205H26.8663C28.1022 11.7053 28.8685 10.0283 28.8685 8.17119V6.40905C28.8717 5.66554 28.2587 5.0596 27.5022 5.0596Z" fill="#C1A300"/>
<path d="M16.7217 73.6357C16.9696 73.0593 17.8435 72.6597 18.8446 72.6597H24.7174C25.7152 72.6597 26.5891 73.0593 26.837 73.6325L29.7554 78.9942C29.7783 79.0466 29.863 79.0827 29.9641 79.0827H30.6783C30.8185 79.0827 30.9196 79.0106 30.8837 78.9385L27.5413 71.9162C27.2543 71.3168 26.263 70.8975 25.125 70.8975H18.4304C17.2924 70.8975 16.2946 71.3201 16.0141 71.9195L12.7076 78.9385C12.6717 79.0106 12.7761 79.0827 12.913 79.0827H13.6272C13.725 79.0827 13.813 79.0466 13.8359 78.9942L16.7217 73.6357Z" fill="#C1A300"/>
<path d="M16.7217 69.7905C16.9696 70.3669 17.8435 70.7665 18.8446 70.7665H24.7174C25.7152 70.7665 26.5891 70.3669 26.837 69.7937L29.7554 64.432C29.7783 64.3796 29.863 64.3436 29.9641 64.3436H30.6783C30.8185 64.3436 30.9196 64.4156 30.8837 64.4877L27.5413 71.51C27.2543 72.1094 26.263 72.5287 25.125 72.5287H18.4304C17.2924 72.5287 16.2946 72.1062 16.0141 71.5068L12.7076 64.4909C12.6717 64.4189 12.7761 64.3468 12.913 64.3468H13.6272C13.725 64.3468 13.813 64.3829 13.8359 64.4353L16.7217 69.7905Z" fill="#C1A300"/>
<path d="M9.24783 107.094C10.4641 108.21 15.7663 109.049 22.1217 109.049C28.4772 109.049 33.7794 108.21 34.9957 107.094H9.24783Z" fill="#C1A300"/>
<path d="M36.8348 107.251C37.2293 107.516 37.4478 107.798 37.4478 108.089C37.4478 109.756 30.512 111.106 21.9587 111.106C13.4054 111.106 6.46957 109.756 6.46957 108.089C6.46957 107.896 6.56739 107.709 6.74348 107.526C5.93804 107.906 5.4913 108.322 5.4913 108.761C5.4913 110.549 12.9359 112 22.1217 112C31.3076 112 38.7522 110.549 38.7522 108.761C38.7522 108.217 38.0576 107.703 36.8348 107.251Z" fill="#C1A300"/>
<path d="M5.74239 94.5162C5.74239 95.2171 5.00543 95.787 4.09565 95.787H3.62283V97.4247H6.21522C7.125 97.4247 7.86196 96.8548 7.86196 96.1538V94.5162C7.86196 94.3131 7.65 94.1493 7.38913 94.1493H6.21848C5.95761 94.1493 5.74239 94.3131 5.74239 94.5162Z" fill="#C1A300"/>
<path d="M37.6989 94.5162C37.6989 95.2171 38.4359 95.787 39.3457 95.787H39.8185V97.4247H37.2261C36.3163 97.4247 35.5793 96.8548 35.5793 96.1538V94.5162C35.5793 94.3131 35.7913 94.1493 36.0522 94.1493H37.2228C37.487 94.1493 37.6989 94.3131 37.6989 94.5162Z" fill="#C1A300"/>
<path d="M40.9989 95.787H38.1913V97.4247H39.9293C40.5913 97.4247 41.1196 97.9716 41.1196 98.6365C41.1098 102.128 38.2891 104.958 34.8098 104.958H8.62174C5.14239 104.958 2.32174 102.128 2.31196 98.6365C2.3087 97.9716 2.83696 97.4247 3.50217 97.4247H4.62065C4.85217 97.4247 5.0413 97.2347 5.0413 97.0021V96.2128C5.0413 95.9802 4.85217 95.7903 4.62065 95.7903H3.24457C1.9337 95.7903 0.851087 96.8482 0.844565 98.1682C0.825 102.822 4.57826 106.599 9.20543 106.599H35.038C39.6652 106.599 43.4152 102.822 43.3989 98.1682C43.3924 96.8482 42.3098 95.787 40.9989 95.787Z" fill="#C1A300"/>
<path d="M5.98043 88.7548V92.1939C5.98043 92.3708 6.12065 92.5116 6.29348 92.5116H7.60435C7.77717 92.5116 7.91739 92.3708 7.91739 92.1939V90.2975C7.91739 85.9151 11.4196 82.358 15.7402 82.358H27.8543C32.175 82.358 35.6772 85.9118 35.6772 90.2975V92.1939C35.6772 92.3708 35.8174 92.5116 35.9902 92.5116H37.3011C37.4739 92.5116 37.6141 92.3708 37.6141 92.1939V88.7548C37.6141 84.3167 34.0696 80.7203 29.6967 80.7203H13.8978C9.525 80.7203 5.98043 84.32 5.98043 88.7548Z" fill="#C1A300"/>
<path d="M28.3696 43.7088V45.3465H32.9348C38.6967 45.3465 43.3696 50.0401 43.3696 55.8276C43.3696 61.0747 39.137 65.3262 33.913 65.3262H32.2826V66.9638H33.9913C40.0728 66.9638 45 62.0115 45 55.9062C45 49.1721 39.5641 43.7088 32.8565 43.7088H28.3696Z" fill="#C1A300"/>
<path d="M43.4837 29.6248H42.2739C41.6185 29.6248 41.0837 30.0735 41.0837 30.627V42.3757C41.0837 42.9293 41.6152 43.378 42.2739 43.378H43.4837C44.1391 43.378 44.6739 42.9293 44.6739 42.3757V30.6303C44.6739 30.0735 44.1424 29.6248 43.4837 29.6248ZM44.3478 41.8288C44.3478 42.3823 43.8163 42.831 43.1576 42.831H42.6C41.9446 42.831 41.4098 42.3823 41.4098 41.8288V31.328C41.4098 30.7744 41.9413 30.3257 42.6 30.3257H43.1576C43.813 30.3257 44.3478 30.7744 44.3478 31.328V41.8288Z" fill="#C1A300"/>
<path d="M24.2185 2.36726L23.4326 4.47986C23.3348 4.74517 23.4685 5.03667 23.7293 5.13821L25.8326 5.92757C26.0967 6.02583 26.387 5.89154 26.488 5.62951L27.2739 3.51691C27.3717 3.2516 27.238 2.9601 26.9772 2.85856L24.8739 2.0692C24.6098 1.96767 24.3163 2.10195 24.2185 2.36726ZM25.3565 4.86963L24.7826 4.65346C24.5185 4.5552 24.3848 4.26041 24.4859 3.99511L24.7011 3.41865C24.7989 3.15334 25.0924 3.01905 25.3565 3.12059L25.9304 3.33676C26.1946 3.43502 26.3283 3.72981 26.2272 3.99511L26.012 4.57157C25.9109 4.83688 25.6174 4.97117 25.3565 4.86963Z" fill="#C1A300"/>
<path d="M18.8315 2.54085V4.7943C18.8315 5.07598 19.0598 5.30525 19.3402 5.30525H21.5837C21.8641 5.30525 22.0924 5.07598 22.0924 4.7943V2.54085C22.0924 2.25917 21.8641 2.0299 21.5837 2.0299H19.3402C19.0598 2.0299 18.8315 2.25917 18.8315 2.54085ZM20.7685 4.48641H20.1554C19.875 4.48641 19.6467 4.25714 19.6467 3.97546V3.35969C19.6467 3.07801 19.875 2.84874 20.1554 2.84874H20.7685C21.0489 2.84874 21.2772 3.07801 21.2772 3.35969V3.97546C21.2772 4.26041 21.0489 4.48641 20.7685 4.48641Z" fill="#C1A300"/>
<path d="M21.1043 1.7908L22.1446 3.78876C22.275 4.03769 22.5815 4.13595 22.8293 4.00494L24.8185 2.9601C25.0663 2.82908 25.1641 2.5212 25.0337 2.27227L23.9935 0.274306C23.863 0.0253785 23.5565 -0.0728822 23.3087 0.058132L21.3196 1.10297C21.0717 1.23398 20.9772 1.54187 21.1043 1.7908ZM23.7196 2.61291L23.175 2.89787C22.9272 3.02888 22.6207 2.93062 22.4902 2.68169L22.2065 2.13798C22.0761 1.88906 22.1739 1.58117 22.4217 1.45016L22.9663 1.1652C23.2141 1.03419 23.5207 1.13245 23.6511 1.38138L23.9348 1.92836C24.0652 2.17401 23.9707 2.4819 23.7196 2.61291Z" fill="#C1A300"/>
<path d="M1.63043 33.2965V18.1315C1.63043 13.8048 5.12283 10.3002 9.42717 10.3002H11.7391V8.66249H9.58043C4.28804 8.66249 0 12.9729 0 18.2888V33.624C0 40.0994 5.22717 45.3465 11.6707 45.3465H16.3043V43.7088H11.9967C6.27065 43.7088 1.63043 39.048 1.63043 33.2965Z" fill="#C1A300"/>
<path d="M32.9348 8.66249V10.3002H34.0793C38.488 10.3002 42.0652 13.89 42.0652 18.3215V28.9697H43.6957V17.8335C43.6957 12.7698 39.6065 8.66249 34.5652 8.66249H32.9348Z" fill="#C1A300"/>
<path d="M40.6124 117.901C40.1163 117.628 39.3101 117.628 38.814 117.901L23 126.615L7.15504 117.901C6.65892 117.628 5.85271 117.628 5.35659 117.901C4.86047 118.174 4.86047 118.617 5.35659 118.89L22.0698 128.082C22.3178 128.219 22.6279 128.287 22.969 128.287C23.2791 128.287 23.6202 128.219 23.8682 128.082L40.5814 118.89C41.1085 118.617 41.1085 118.174 40.6124 117.901Z" fill="#C1A300"/>
</svg>
